HIERARCHY
ROOT Hips
{
  OFFSET 5.84602e-005 68.8428 3.50346
  CHANNELS 6 Xposition Yposition Zposition Zrotation Xrotation Yrotation
  JOINT Spine
  {
    OFFSET 0 8.597 -4.6522
    CHANNELS 3 Zrotation Xrotation Yrotation
    JOINT Spine1
    {
      OFFSET 0 7.8454 0.4098
      CHANNELS 3 Zrotation Xrotation Yrotation
      JOINT Spine2
      {
        OFFSET 0 9.7078 -2.1609
        CHANNELS 3 Zrotation Xrotation Yrotation
        JOINT Neck
        {
          OFFSET 0 21.8761 -0.4549
          CHANNELS 3 Zrotation Xrotation Yrotation
          JOINT Head
          {
            OFFSET 0 12.3537 3.3602
            CHANNELS 3 Zrotation Xrotation Yrotation
            End Site
            {
              OFFSET 0.0001 18.9506 0.5657
            }
          }
        }
        JOINT LeftShoulder
        {
          OFFSET 2.2086 21.1115 7.2329
          CHANNELS 3 Zrotation Xrotation Yrotation
          JOINT LeftArm
          {
            OFFSET 13.1193 3.0282 -4.8998
            CHANNELS 3 Zrotation Xrotation Yrotation
            JOINT LeftForeArm
            {
              OFFSET 27.4081 -0.0973053 -0.2375
              CHANNELS 3 Zrotation Xrotation Yrotation
              JOINT LeftHand
              {
                OFFSET 22.8641 0.0662994 -0.1369
                CHANNELS 3 Zrotation Xrotation Yrotation
                JOINT LeftHandIndex1
                {
                  OFFSET 8.8614 0.775009 2.4612
                  CHANNELS 3 Zrotation Xrotation Yrotation
                  JOINT LeftHandIndex2
                  {
                    OFFSET 3.3146 -0.808304 0.5841
                    CHANNELS 3 Zrotation Xrotation Yrotation
                    JOINT LeftHandIndex3
                    {
                      OFFSET 2.2628 -0.552002 0.3989
                      CHANNELS 3 Zrotation Xrotation Yrotation
                      End Site
                      {
                        OFFSET 1.6102 -0.4807 0.2612
                      }
                    }
                  }
                }
                JOINT LeftHandMiddle1
                {
                  OFFSET 8.9937 0.895004 0.2143
                  CHANNELS 3 Zrotation Xrotation Yrotation
                  JOINT LeftHandMiddle2
                  {
                    OFFSET 4.0984 0.0113983 -0.0242
                    CHANNELS 3 Zrotation Xrotation Yrotation
                    JOINT LeftHandMiddle3
                    {
                      OFFSET 2.2716 0.00689697 -0.0138001
                      CHANNELS 3 Zrotation Xrotation Yrotation
                      End Site
                      {
                        OFFSET 2.0404 -0.1441 0.0027
                      }
                    }
                  }
                }
                JOINT LeftHandRing1
                {
                  OFFSET 8.5234 0.597198 -2.0164
                  CHANNELS 3 Zrotation Xrotation Yrotation
                  JOINT LeftHandRing2
                  {
                    OFFSET 3.7188 -0.188293 -0.2328
                    CHANNELS 3 Zrotation Xrotation Yrotation
                    JOINT LeftHandRing3
                    {
                      OFFSET 2.1191 -0.106598 -0.1332
                      CHANNELS 3 Zrotation Xrotation Yrotation
                      End Site
                      {
                        OFFSET 1.8737 -0.2304 -0.0886
                      }
                    }
                  }
                }
                JOINT LeftHandPinky1
                {
                  OFFSET 7.9094 -0.601089 -3.4825
                  CHANNELS 3 Zrotation Xrotation Yrotation
                  JOINT LeftHandPinky2
                  {
                    OFFSET 2.2874 -0.477005 -0.6314
                    CHANNELS 3 Zrotation Xrotation Yrotation
                    JOINT LeftHandPinky3
                    {
                      OFFSET 1.6774 -0.349396 -0.4633
                      CHANNELS 3 Zrotation Xrotation Yrotation
                      End Site
                      {
                        OFFSET 1.4888 -0.4091 -0.3416
                      }
                    }
                  }
                }
                JOINT LeftHandThumb1
                {
                  OFFSET 1.833 -1.3875 1.3896
                  CHANNELS 3 Zrotation Xrotation Yrotation
                  JOINT LeftHandThumb2
                  {
                    OFFSET 3.4129 -1.121 2.5732
                    CHANNELS 3 Zrotation Xrotation Yrotation
                    JOINT LeftHandThumb3
                    {
                      OFFSET 2.2474 -0.804199 1.6192
                      CHANNELS 3 Zrotation Xrotation Yrotation
                      End Site
                      {
                        OFFSET 1.6527 -0.5689 1.1317
                      }
                    }
                  }
                }
              }
            }
          }
        }
        JOINT RightShoulder
        {
          OFFSET -2.2086 21.1115 7.2329
          CHANNELS 3 Zrotation Xrotation Yrotation
          JOINT RightArm
          {
            OFFSET -13.1216 3.0287 -4.9007
            CHANNELS 3 Zrotation Xrotation Yrotation
            JOINT RightForeArm
            {
              OFFSET -27.4081 -0.0973053 -0.2375
              CHANNELS 3 Zrotation Xrotation Yrotation
              JOINT RightHand
              {
                OFFSET -22.8641 0.0664063 -0.1369
                CHANNELS 3 Zrotation Xrotation Yrotation
                JOINT RightHandIndex1
                {
                  OFFSET -8.8614 0.774994 2.4612
                  CHANNELS 3 Zrotation Xrotation Yrotation
                  JOINT RightHandIndex2
                  {
                    OFFSET -3.3146 -0.808304 0.5841
                    CHANNELS 3 Zrotation Xrotation Yrotation
                    JOINT RightHandIndex3
                    {
                      OFFSET -2.2628 -0.552002 0.3989
                      CHANNELS 3 Zrotation Xrotation Yrotation
                      End Site
                      {
                        OFFSET -1.6102 -0.4807 0.2612
                      }
                    }
                  }
                }
                JOINT RightHandMiddle1
                {
                  OFFSET -8.9937 0.894989 0.2143
                  CHANNELS 3 Zrotation Xrotation Yrotation
                  JOINT RightHandMiddle2
                  {
                    OFFSET -4.0984 0.0113983 -0.0242
                    CHANNELS 3 Zrotation Xrotation Yrotation
                    JOINT RightHandMiddle3
                    {
                      OFFSET -2.2716 0.00691223 -0.0138001
                      CHANNELS 3 Zrotation Xrotation Yrotation
                      End Site
                      {
                        OFFSET -2.0404 -0.1441 0.0027
                      }
                    }
                  }
                }
                JOINT RightHandRing1
                {
                  OFFSET -8.5234 0.597198 -2.0164
                  CHANNELS 3 Zrotation Xrotation Yrotation
                  JOINT RightHandRing2
                  {
                    OFFSET -3.7188 -0.188309 -0.2328
                    CHANNELS 3 Zrotation Xrotation Yrotation
                    JOINT RightHandRing3
                    {
                      OFFSET -2.1191 -0.106598 -0.1332
                      CHANNELS 3 Zrotation Xrotation Yrotation
                      End Site
                      {
                        OFFSET -1.8737 -0.2304 -0.0886
                      }
                    }
                  }
                }
                JOINT RightHandPinky1
                {
                  OFFSET -7.9094 -0.601105 -3.4825
                  CHANNELS 3 Zrotation Xrotation Yrotation
                  JOINT RightHandPinky2
                  {
                    OFFSET -2.2874 -0.477005 -0.6314
                    CHANNELS 3 Zrotation Xrotation Yrotation
                    JOINT RightHandPinky3
                    {
                      OFFSET -1.6774 -0.349396 -0.4633
                      CHANNELS 3 Zrotation Xrotation Yrotation
                      End Site
                      {
                        OFFSET -1.4888 -0.4091 -0.3416
                      }
                    }
                  }
                }
                JOINT RightHandThumb1
                {
                  OFFSET -1.833 -1.38751 1.3896
                  CHANNELS 3 Zrotation Xrotation Yrotation
                  JOINT RightHandThumb2
                  {
                    OFFSET -3.41299 -1.12099 2.5732
                    CHANNELS 3 Zrotation Xrotation Yrotation
                    JOINT RightHandThumb3
                    {
                      OFFSET -2.24741 -0.804108 1.6192
                      CHANNELS 3 Zrotation Xrotation Yrotation
                      End Site
                      {
                        OFFSET -1.6527 -0.5689 1.1317
                      }
                    }
                  }
                }
              }
            }
          }
        }
      }
    }
  }
  JOINT RightUpLeg
  {
    OFFSET -9.1966 3.8861 -0.7581
    CHANNELS 3 Zrotation Xrotation Yrotation
    JOINT RightLeg
    {
      OFFSET -0.7359 -41.0265 0
      CHANNELS 3 Zrotation Xrotation Yrotation
      JOINT RightFoot
      {
        OFFSET 0 -40.2855 0
        CHANNELS 3 Zrotation Xrotation Yrotation
        JOINT RightToeBase
        {
          OFFSET 0 -5.6122 11.7359
          CHANNELS 3 Zrotation Xrotation Yrotation
          End Site
          {
            OFFSET 0 0 7.8731
          }
        }
      }
    }
  }
  JOINT LeftUpLeg
  {
    OFFSET 9.1965 3.8864 -0.7581
    CHANNELS 3 Zrotation Xrotation Yrotation
    JOINT LeftLeg
    {
      OFFSET 0.7359 -41.0268 0
      CHANNELS 3 Zrotation Xrotation Yrotation
      JOINT LeftFoot
      {
        OFFSET 0 -40.2855 0
        CHANNELS 3 Zrotation Xrotation Yrotation
        JOINT LeftToeBase
        {
          OFFSET 0 -5.6122 11.7359
          CHANNELS 3 Zrotation Xrotation Yrotation
          End Site
          {
            OFFSET 0 0 7.8731
          }
        }
      }
    }
  }
}
MOTION
Frames:	4
Frame Time:	0.0333333
5.84602e-005 68.8428 3.50346 0 0 -0 0 0 -0 0 0 -0 0 0 -0 0 0 -0 0 0 -0 0 0 -0 0 0 -0 0 0 -0 0 0 -0 0 0 -0 0 0 -0 0 0 -0 0 0 -0 -0.0146107 -8.87603e-005 -2.63497e-007 2.99804e-018 -2.42657e-020 -1.42182e-022 0 0 -0 -0.0187562 -0.001176 5.858e-005 5.06224e-018 3.88251e-019 1.21329e-020 0 0 -0 -0.012269 -0.00324817 0.000675346 -1.74678e-018 3.88251e-019 -0 0 0 -0 0 0 -0 0 0 -0 0 0 -0 0 0 -0 0 0 -0 0 0 -0 0 0 -0 0 0 -0 0 0 -0 0 0 -0 0.0149955 -9.10982e-005 2.64101e-007 -9.69331e-018 1.21329e-020 -4.7394e-023 0 0 -0 0.0189956 -0.00119102 -5.96516e-005 -5.41541e-019 0 2.42657e-020 0 0 -0 0.0122698 -0.00324857 -0.000673756 -2.00796e-019 0 -1.94126e-019 0 0 -0 0 0 -0 0 0 -0 3.39842 1.33031 -0.0637918 -5.65207e-008 0.834868 -0.000436188 -3.39935 -2.16518 -0.0642563 -8.89002e-024 -1.18485e-023 -1.48106e-024 -3.39844 1.35642 0.0640283 -3.18788e-007 0.782166 -0.000588827 3.39931 -2.13858 0.0634662 1.1399e-023 0 -0 
39.7387 21.6821 3.11558 -0.00385301 -56.9972 179.995 -0.204016 8.69212 -0.120534 -0.396252 17.3845 -0.213079 -0.396252 17.3845 -0.213079 -1.68784e-007 -33.0001 -7.83085e-010 2.19972e-007 -15.0017 -1.41848e-007 0.656547 -11.6092 -29.6868 1.18774 -3.36598 -46.6098 8.85261 -12.4784 -5.47112 59.5116 -8.82706 -0.428382 2.60396e-007 -3.33452e-007 -5.32025e-008 -3.18055e-015 3.18055e-015 6.36111e-015 2.60396e-007 -3.33452e-007 -5.32025e-008 2.60396e-007 -3.33452e-007 -5.32025e-008 -0.0145871 -8.87847e-005 5.66853e-006 2.60393e-007 -3.33445e-007 -5.32451e-008 2.60396e-007 -3.33452e-007 -5.32025e-008 -0.0187444 -0.00117618 5.89046e-005 2.60392e-007 -3.33444e-007 -5.32597e-008 2.60396e-007 -3.33452e-007 -5.32025e-008 -0.0122497 -0.00324446 0.00067382 2.6039e-007 -3.33448e-007 -5.32454e-008 2.60396e-007 -3.33452e-007 -5.32025e-008 -3.18055e-015 3.18055e-015 6.36111e-015 2.60396e-007 -3.33452e-007 -5.32025e-008 0.743861 -10.7647 25.2635 -1.4779 -3.12783 57.1123 -9.51182 -12.6137 10.75 -61.1623 1.48242 -3.65257 1.70915e-007 -6.0135e-007 -4.22469e-006 3.9769e-007 -8.59464e-007 9.76823e-008 2.32909e-007 -1.53921e-007 -1.07081e-006 1.70915e-007 -6.0135e-007 -4.22469e-006 0.014976 -9.13729e-005 -8.69494e-006 1.70204e-007 -6.01898e-007 -4.22461e-006 1.70915e-007 -6.0135e-007 -4.22469e-006 0.0189851 -0.0011895 -4.74259e-005 1.69974e-007 -6.01993e-007 -4.22459e-006 1.70915e-007 -6.0135e-007 -4.22469e-006 0.0122793 -0.00325126 -0.000679146 2.33913e-007 -1.54308e-007 -1.07086e-006 1.70915e-007 -6.0135e-007 -4.22469e-006 3.9769e-007 -8.59464e-007 9.76823e-008 2.32909e-007 -1.53921e-007 -1.07081e-006 -65.7396 -52.4016 -67.8656 -112.485 61.5302 112.249 -18.5497 44.7004 5.4395 -4.90652e-007 2.72052e-006 8.61298e-006 65.734 -52.4055 67.86 112.483 61.5305 -112.252 18.5478 44.6998 -5.44244 1.26683e-007 1.7615e-006 -7.59917e-006 
39.7387 21.6851 3.29856 -0.00385285 -56.9961 179.995 -0.20352 8.55967 -0.12122 -0.395224 17.1195 -0.214951 -0.395224 17.1196 -0.214951 -2.74254e-005 -32.193 -8.42609e-006 -7.83368e-008 -14.4606 -1.44193e-008 0.608834 -11.3418 -30.3203 1.18441 -3.39913 -45.9941 8.58096 -12.4404 -5.30024 59.3661 -8.89125 -0.618289 -1.46288e-007 -1.18769e-006 -1.46586e-007 -3.07584e-007 -1.70103e-006 -1.39747e-006 6.36111e-015 -5.1684e-015 3.18055e-015 -1.46288e-007 -1.18769e-006 -1.46586e-007 -0.0146336 -8.96883e-005 1.95149e-006 4.77083e-015 3.18055e-015 1.59028e-015 -1.46288e-007 -1.18769e-006 -1.46586e-007 -0.0187553 -0.00117745 5.77237e-005 0 5.56597e-015 -0 -1.46288e-007 -1.18769e-006 -1.46586e-007 -0.0122812 -0.00325229 0.000678779 -1.59028e-015 -1.59028e-015 7.95139e-015 -1.46288e-007 -1.18769e-006 -1.46586e-007 -3.07584e-007 -1.70103e-006 -1.39747e-006 6.36111e-015 -5.1684e-015 3.18055e-015 0.789464 -10.445 25.8068 -1.45324 -3.10948 56.6383 -9.51182 -12.6137 10.7499 -60.8825 1.4079 -3.52631 1.32417e-031 4.77083e-015 -1.59028e-015 2.42765e-031 4.37326e-015 -3.18055e-015 2.64834e-031 4.77083e-015 -3.18055e-015 1.32417e-031 4.77083e-015 -1.59028e-015 0.0149722 -9.04155e-005 6.91475e-006 -6.80248e-008 -4.20269e-007 -3.16584e-006 1.32417e-031 4.77083e-015 -1.59028e-015 0.0190011 -0.00119168 -5.90517e-005 7.95139e-015 -1.98785e-015 -7.95139e-015 1.32417e-031 4.77083e-015 -1.59028e-015 0.0122617 -0.00324625 -0.000674131 3.18055e-015 -5.96354e-015 1.59028e-015 1.32417e-031 4.77083e-015 -1.59028e-015 2.42765e-031 4.37326e-015 -3.18055e-015 2.64834e-031 4.77083e-015 -3.18055e-015 -66.0795 -52.5721 -68.135 -112.491 61.5293 112.254 -18.5489 44.6975 5.43767 7.41345e-007 -1.19704e-006 -1.00577e-006 66.0712 -52.5741 68.1264 112.489 61.5295 -112.257 18.547 44.6971 -5.44067 1.18783e-006 1.24288e-006 -4.57401e-006 
39.7387 21.6882 3.48167 -0.00385285 -56.9961 179.995 -0.202997 8.42682 -0.121896 -0.394148 16.854 -0.216803 -0.394148 16.854 -0.216803 -1.62628e-006 -31.3841 -7.81558e-007 5.80666e-008 -13.9186 1.56254e-007 0.564154 -11.0738 -30.9534 1.18142 -3.4323 -45.378 8.3092 -12.4032 -5.12917 59.2205 -8.95495 -0.808398 1.59028e-015 4.37326e-015 -4.77083e-015 1.76556e-031 3.18055e-015 -3.18055e-015 8.82781e-032 3.18055e-015 -1.59028e-015 1.59028e-015 4.37326e-015 -4.77083e-015 -0.0146029 -8.98591e-005 2.69983e-006 3.64147e-031 1.31198e-014 -1.59028e-015 1.59028e-015 4.37326e-015 -4.77083e-015 -0.0187311 -0.00117398 4.9314e-005 3.18055e-015 -5.56597e-015 4.77083e-015 1.59028e-015 4.37326e-015 -4.77083e-015 -0.0122551 -0.00324534 0.000682243 -7.95139e-015 3.57812e-015 1.59028e-015 1.59028e-015 4.37326e-015 -4.77083e-015 1.76556e-031 3.18055e-015 -3.18055e-015 8.82781e-032 3.18055e-015 -1.59028e-015 0.831962 -10.1246 26.3497 -1.42842 -3.09138 56.1643 -9.51182 -12.6137 10.7499 -60.6025 1.33401 -3.39964 6.36111e-015 0 -1.59028e-015 4.77083e-015 3.97569e-016 1.59028e-015 3.18055e-015 7.95139e-016 -1.59028e-015 6.36111e-015 0 -1.59028e-015 0.0149773 -9.07162e-005 -1.21103e-006 -3.18055e-015 -5.1684e-015 -0 6.36111e-015 0 -1.59028e-015 0.0189834 -0.00119063 -6.48798e-005 1.59028e-015 5.1684e-015 4.77083e-015 6.36111e-015 0 -1.59028e-015 0.0122613 -0.00324665 -0.000678517 -1.59028e-015 1.19271e-015 1.59028e-015 6.36111e-015 0 -1.59028e-015 4.77083e-015 3.97569e-016 1.59028e-015 3.18055e-015 7.95139e-016 -1.59028e-015 -66.4221 -52.7417 -68.4071 -112.497 61.5283 112.259 -18.5481 44.6948 5.43589 1.58176e-006 4.0846e-006 1.94355e-006 66.4111 -52.7417 68.3955 112.495 61.5285 -112.262 18.5463 44.6944 -5.4389 -5.06028e-007 3.53544e-006 1.08678e-006 
